<svg xmlns="http://www.w3.org/2000/svg" version="1.1" xmlns:xlink="http://www.w3.org/1999/xlink" xmlns:svgjs="http://svgjs.dev/svgjs" width="1000" height="625" viewBox="0 0 1000 625"><g transform="matrix(1,0,0,1,0,0)"><svg viewBox="0 0 512 320" data-background-color="#ffffff" preserveAspectRatio="xMidYMid meet" height="625" width="1000" xmlns="http://www.w3.org/2000/svg" xmlns:xlink="http://www.w3.org/1999/xlink"><g id="tight-bounds" transform="matrix(1,0,0,1,0,0)"><svg viewBox="0 0 512 320" height="320" width="512"><g><svg></svg></g><g><svg viewBox="0 0 512 320" height="320" width="512"><g><path xmlns="http://www.w3.org/2000/svg" d="M96 160c0-88.366 71.634-160 160-160 88.366 0 160 71.634 160 160 0 88.366-71.634 160-160 160-88.366 0-160-71.634-160-160z" fill="#374151" fill-rule="nonzero" stroke="none" stroke-width="1" stroke-linecap="butt" stroke-linejoin="miter" stroke-miterlimit="10" stroke-dasharray="" stroke-dashoffset="0" font-family="none" font-weight="none" font-size="none" text-anchor="none" style="mix-blend-mode: normal" data-fill-palette-color="tertiary"></path></g><g transform="matrix(1,0,0,1,172.99855699855698,80)"><svg viewBox="0 0 166.00288600288604 160" height="160" width="166.00288600288604"><g><svg viewBox="0 0 166.00288600288604 160" height="160" width="166.00288600288604"><g><svg viewBox="0 0 166.00288600288604 160" height="160" width="166.00288600288604"><g><svg viewBox="0 0 166.00288600288604 160" height="160" width="166.00288600288604"><g id="textblocktransform"><svg viewBox="0 0 166.00288600288604 160" height="160" width="166.00288600288604" id="textblock"><g><svg viewBox="0 0 166.00288600288604 160" height="160" width="166.00288600288604"><g transform="matrix(1,0,0,1,0,0)"><svg width="166.00288600288604" viewBox="3.6500000953674316 -34.650001525878906 35.94999694824219 34.650001525878906" height="160" data-palette-color="#dedede"><path d="M23.1-5L20.05-5Q19.55-6.25 18.63-8.3 17.7-10.35 16.55-12.78 15.4-15.2 14.2-17.78 13-20.35 11.9-22.6 10.8-24.85 9.95-26.55 9.1-28.25 8.7-28.95L8.7-28.95Q8.05-22.7 7.68-15.38 7.3-8.05 7 0L7 0 3.65 0Q4.1-9.45 4.67-18.1 5.25-26.75 6.1-34.65L6.1-34.65 9.1-34.65Q10.6-32.15 12.3-28.88 14-25.6 15.68-22.08 17.35-18.55 18.93-15.13 20.5-11.7 21.7-8.95L21.7-8.95Q22.9-11.7 24.48-15.13 26.05-18.55 27.73-22.08 29.4-25.6 31.1-28.88 32.8-32.15 34.3-34.65L34.3-34.65 37.15-34.65Q38-26.75 38.58-18.1 39.15-9.45 39.6 0L39.6 0 36.15 0Q35.85-8.05 35.48-15.38 35.1-22.7 34.45-28.95L34.45-28.95Q34.05-28.25 33.2-26.55 32.35-24.85 31.25-22.6 30.15-20.35 28.95-17.78 27.75-15.2 26.6-12.78 25.45-10.35 24.53-8.3 23.6-6.25 23.1-5L23.1-5Z" opacity="1" transform="matrix(1,0,0,1,0,0)" fill="#dedede" class="undefined-text-0" data-fill-palette-color="quaternary" id="text-0"></path></svg></g></svg></g></svg></g></svg></g><g></g></svg></g></svg></g></svg></g></svg></g><defs></defs></svg><rect width="512" height="320" fill="none" stroke="none" visibility="hidden"></rect></g></svg></g></svg>